{"title":"Rise.Of.The.Damned.2011.HDTV.XviD-NoGRP","uid":6890252,"size":998040879,"categoryP":"video","categoryS":"movies","magnet":"?xt=urn:btih:56fa4658f1f94898240a7fc185a67c2fe75d541d&amp;dn=Rise.Of.The.Damned.2011.HDTV.XviD-NoGRP&amp;tr=udp%3A%2F%2Ftracker.openbittorrent.com%3A80&amp;tr=udp%3A%2F%2Fopen.demonii.com%3A1337&amp;tr=udp%3A%2F%2Ftracker.coppersurfer.tk%3A6969&amp;tr=udp%3A%2F%2Fexodus.desync.com%3A6969","seeders":0,"leechers":2,"uploader":"TvTeam","files":5,"time":1323984376,"description":". \n &lt;a href=&quot;\nhttp://www.torrenting.com&quot; rel=&quot;nofollow&quot; target=&quot;_NEW&quot;&gt;\nhttp://www.torrenting.com&lt;/a&gt;          :     Once &amp; For all ;)\n\n\n               www . Torrenting . Com \n\n(((((((((((((= Enjoy No RAR releases =))))))))))))))))))))\n\n\n...................................NFO:....................................\n\n.http://www.imdb.com/title/tt1858775/\n\nGeneral\nComplete name                    : Rise.Of.The.Damned.2011.DVDRip.XviD-NoGRP.avi\nFormat                           : AVI\nFormat/Info                      : Audio Video Interleave\nFile size                        : 940 MiB\nDuration                         : 1h 22mn\nOverall bit rate                 : 1 597 Kbps\n\nVideo\nID                               : 0\nFormat                           : MPEG-4 Visual\nFormat profile                   : Advanced Simple@L5\nFormat settings, BVOP            : No\nFormat settings, QPel            : No\nFormat settings, GMC             : No warppoints\nFormat settings, Matrix          : Default (MPEG)\nCodec ID                         : XVID\nCodec ID/Hint                    : XviD\nDuration                         : 1h 22mn\nBit rate                         : 1 462 Kbps\nWidth                            : 720 pixels\nHeight                           : 480 pixels\nDisplay aspect ratio             : 3:2\nFrame rate                       : 25.000 fps\nStandard                         : NTSC\nColor space                      : YUV\nChroma subsampling               : 4:2:0\nBit depth                        : 8 bits\nScan type                        : Progressive\nCompression mode                 : Lossy\nBits/(Pixel*Frame)               : 0.169\nStream size                      : 860 MiB (92%)\nWriting library                  : XviD 1.1.2 (UTC 2006-11-01)\n\nAudio\nID                               : 1\nFormat                           : MPEG Audio\nFormat version                   : Version 1\nFormat profile                   : Layer 3\nCodec ID                         : 55\nCodec ID/Hint                    : MP3\nDuration                         : 1h 22mn\nBit rate mode                    : Constant\nBit rate                         : 128 Kbps\nChannel(s)                       : 2 channels\nSampling rate                    : 44.1 KHz\nCompression mode                 : Lossy\nStream size                      : 75.3 MiB (8%)\nAlignment                        : Split accross interleaves\nInterleave, duration             : 80 ms (2.00 video frames)","torrent":{"xt":"urn:btih:56fa4658f1f94898240a7fc185a67c2fe75d541d","amp;dn":"Rise.Of.The.Damned.2011.HDTV.XviD-NoGRP","amp;tr":["udp%3A%2F%2Ftracker.openbittorrent.com%3A80","udp%3A%2F%2Fopen.demonii.com%3A1337","udp%3A%2F%2Ftracker.coppersurfer.tk%3A6969","udp%3A%2F%2Fexodus.desync.com%3A6969"],"infoHash":"56fa4658f1f94898240a7fc185a67c2fe75d541d","infoHashBuffer":{"type":"Buffer","data":[86,250,70,88,241,249,72,152,36,10,127,193,133,166,124,47,231,93,84,29]},"announce":[],"urlList":[]}}